<?xml version="1.0" standalone="no"?>
<!DOCTYPE svg PUBLIC "-//W3C//DTD SVG 20010904//EN"
 "http://www.w3.org/TR/2001/REC-SVG-20010904/DTD/svg10.dtd">
<svg version="1.0" xmlns="http://www.w3.org/2000/svg"
 width="616.000000pt" height="616.000000pt" viewBox="0 0 616.000000 616.000000"
 preserveAspectRatio="xMidYMid meet">
<metadata>
Created by potrace 1.14, written by Peter Selinger 2001-2017
</metadata>
<g transform="translate(0.000000,616.000000) scale(0.100000,-0.100000)"
fill="#000000" stroke="none">
<path d="M3524 6021 c-4 -4 -64 -8 -257 -15 -66 -3 -121 -7 -125 -10 -3 -3
-11 -1 -19 5 -7 6 -13 8 -13 3 0 -10 -114 -12 -707 -16 -204 -2 -373 -5 -376
-8 -2 -3 -7 -43 -11 -90 -3 -47 -8 -96 -10 -110 -2 -14 -7 -86 -10 -160 -4
-75 -8 -145 -10 -155 -2 -11 -7 -56 -11 -100 -12 -132 -13 -149 -20 -185 -3
-19 -10 -51 -15 -70 -5 -19 -12 -59 -15 -89 -4 -30 -9 -63 -11 -75 -5 -23 -11
-66 -19 -123 -11 -86 -18 -122 -35 -193 -10 -41 -21 -94 -24 -118 -3 -24 -14
-74 -25 -110 -10 -37 -29 -105 -41 -152 -12 -47 -27 -101 -33 -120 -6 -19 -11
-37 -12 -40 0 -3 -3 -9 -6 -15 -6 -10 -13 -41 -25 -119 -3 -22 -18 -76 -33
-120 -16 -45 -36 -117 -46 -161 -21 -94 -40 -170 -59 -240 -7 -27 -16 -68 -19
-90 -4 -22 -13 -80 -21 -130 -24 -144 -20 -441 7 -525 14 -43 16 -55 22 -106
3 -23 12 -54 20 -70 8 -16 15 -35 15 -42 0 -46 130 -263 210 -352 76 -84 222
-230 231 -230 5 0 22 -8 37 -19 15 -10 67 -45 117 -77 143 -92 171 -128 161
-204 -4 -30 -2 -58 4 -70 26 -48 10 -277 -21 -296 -5 -3 -7 -9 -5 -13 3 -4 -4
-17 -14 -29 -11 -12 -20 -27 -20 -35 0 -7 -9 -23 -20 -35 -12 -12 -18 -22 -15
-22 2 0 -20 -49 -50 -109 -30 -60 -55 -114 -55 -120 0 -11 -20 -51 -30 -61 -3
-3 -6 -12 -8 -20 -2 -8 -9 -29 -17 -46 -8 -17 -16 -40 -18 -50 -1 -11 -13 -40
-26 -67 -17 -36 -24 -70 -27 -141 -3 -58 0 -97 6 -101 5 -3 10 -13 10 -21 0
-17 70 -104 83 -104 5 0 26 -10 46 -22 20 -13 38 -23 41 -24 3 0 19 -6 35 -13
17 -7 50 -14 75 -16 25 -2 57 -7 71 -13 14 -6 48 -9 75 -7 27 2 60 -3 74 -10
15 -7 46 -11 75 -8 68 6 82 6 225 -2 69 -4 139 -7 155 -7 17 1 154 3 306 5
151 2 279 6 285 9 5 3 47 9 94 13 135 10 170 14 178 19 5 3 22 8 38 10 16 3
40 8 54 11 14 3 36 8 49 11 50 10 127 42 161 65 112 78 148 138 136 223 -4 23
-6 44 -6 49 0 4 -10 28 -24 55 -13 26 -27 58 -30 72 -11 39 -133 290 -146 300
-9 7 -104 202 -107 219 -1 8 -5 17 -10 20 -4 3 -9 13 -11 21 -2 8 -13 38 -26
65 -20 43 -23 62 -21 135 2 47 6 95 9 108 3 15 0 25 -9 29 -8 3 -15 17 -15 31
0 19 19 43 73 94 39 37 76 68 80 68 4 0 23 16 42 35 19 19 35 31 35 27 0 -4 4
-2 8 4 4 5 31 25 60 44 28 18 52 37 52 41 0 4 8 10 18 13 9 3 34 22 55 41 21
19 39 33 40 32 2 -1 11 6 21 15 10 10 16 18 13 18 -2 0 19 24 47 54 28 29 60
66 71 81 11 16 26 34 33 42 13 12 37 55 84 143 10 19 24 40 31 45 8 6 16 24
20 40 3 17 11 44 18 60 14 35 17 45 23 103 3 23 10 51 15 61 20 37 18 343 -3
511 -12 94 -16 116 -21 140 -3 14 -8 52 -11 85 -3 33 -9 65 -13 70 -4 6 -8 26
-10 45 -1 19 -9 49 -17 65 -8 17 -21 62 -29 100 -9 39 -17 77 -20 85 -13 54
-22 100 -19 100 2 0 -5 19 -15 43 -18 41 -26 78 -36 160 -3 20 -14 63 -24 95
-11 31 -27 93 -36 137 -9 44 -20 96 -25 115 -5 19 -12 62 -15 95 -3 32 -10 75
-15 95 -5 19 -11 54 -14 78 -3 23 -8 47 -11 52 -10 17 -20 67 -29 149 -8 63
-15 114 -32 221 -22 137 -22 139 -29 210 -4 36 -8 81 -11 100 -12 98 -14 120
-19 185 -10 140 -19 291 -19 343 -1 71 6 69 -251 78 -214 7 -476 10 -481 5z"/>
<path d="M6141 2118 c0 -13 4 -32 9 -43 7 -15 9 -10 9 23 1 23 -3 42 -9 42 -5
0 -10 -10 -9 -22z"/>
</g>
</svg>
