<?xml version="1.0" standalone="no"?>
<!DOCTYPE svg PUBLIC "-//W3C//DTD SVG 20010904//EN"
 "http://www.w3.org/TR/2001/REC-SVG-20010904/DTD/svg10.dtd">
<svg version="1.0" xmlns="http://www.w3.org/2000/svg"
 width="200.000000pt" height="200.000000pt" viewBox="0 0 200.000000 200.000000"
 preserveAspectRatio="xMidYMid meet">

<g transform="translate(0.000000,200.000000) scale(0.100000,-0.100000)"
fill="#000000" stroke="none">
<path d="M907 1774 c-11 -12 -8 -159 4 -171 7 -7 4 -28 -10 -71 -22 -64 -28
-163 -12 -204 12 -34 1 -54 -54 -96 -88 -66 -86 -51 -83 -500 l3 -394 24 -19
c21 -17 41 -19 221 -19 180 0 200 2 221 19 l24 19 3 394 c3 449 5 434 -83 500
-55 42 -66 62 -54 96 16 41 10 140 -11 203 -15 45 -18 64 -10 74 6 8 10 45 8
92 l-3 78 -90 3 c-50 1 -94 0 -98 -4z m176 -381 c2 -5 0 -27 -5 -50 l-9 -43
-69 0 -69 0 -9 43 c-5 23 -7 45 -5 50 2 4 40 7 83 7 43 0 81 -3 83 -7z m36
-153 c68 -45 91 -80 91 -140 l0 -40 -210 0 -210 0 0 43 c1 57 17 83 86 133 54
38 65 42 121 43 56 1 67 -3 122 -39z m-147 -352 c-15 -15 -16 -58 -2 -58 6 0
10 -4 10 -10 0 -5 -9 -10 -21 -10 -12 0 -17 4 -14 11 9 14 -3 59 -16 59 -7 0
-9 -12 -5 -35 4 -22 3 -35 -4 -35 -5 0 -10 7 -10 15 0 8 -5 15 -11 15 -6 0 -8
-8 -4 -19 6 -19 -18 -36 -36 -25 -5 3 -9 0 -9 -5 0 -22 -17 -10 -33 24 -9 19
-12 35 -7 35 6 0 13 -7 16 -15 11 -27 26 -16 20 13 -6 26 -6 26 10 7 16 -20
16 -20 9 3 -4 13 -2 22 4 22 6 0 11 -7 11 -15 0 -8 5 -15 10 -15 6 0 10 9 10
21 0 11 4 18 9 14 5 -3 12 -1 16 5 3 5 18 10 33 10 20 0 23 -3 14 -12z m63 2
c-4 -6 -10 -8 -15 -5 -5 3 -11 1 -15 -4 -3 -5 2 -14 11 -19 20 -11 15 -46 -9
-50 -9 -2 -17 1 -17 7 0 6 7 11 15 11 21 0 19 13 -6 28 -16 11 -18 16 -9 28
14 16 55 20 45 4z m36 -4 c5 3 9 1 9 -5 0 -5 -5 -13 -11 -17 -6 -3 -8 -16 -5
-28 4 -16 1 -23 -9 -23 -10 0 -15 10 -15 28 0 33 12 68 18 51 2 -7 8 -10 13
-6z m52 -17 c-16 -6 -21 -15 -19 -38 1 -21 -2 -31 -12 -31 -11 0 -13 8 -7 37
9 50 11 52 37 45 22 -5 22 -5 1 -13z m53 -18 c21 17 17 4 -12 -38 l-27 -38 7
34 c3 18 7 41 7 50 1 13 2 13 6 -2 4 -14 8 -16 19 -6z m-85 -112 c73 -25 87
-65 36 -103 -24 -18 -43 -21 -127 -21 -85 0 -103 3 -127 21 -17 13 -28 30 -28
45 0 54 151 89 246 58z m119 -335 c0 -25 -4 -54 -10 -64 -9 -17 -12 -17 -72 2
-73 23 -204 21 -275 -6 -40 -14 -43 -14 -53 4 -5 10 -10 39 -10 64 l0 46 210
0 210 0 0 -46z"/>
<path d="M920 719 c-70 -21 -75 -49 -14 -75 70 -30 219 -8 232 33 10 34 -144
64 -218 42z"/>
</g>
</svg>
