<?xml version="1.0" standalone="no"?>
<!DOCTYPE svg PUBLIC "-//W3C//DTD SVG 20010904//EN"
 "http://www.w3.org/TR/2001/REC-SVG-20010904/DTD/svg10.dtd">
<svg version="1.0" xmlns="http://www.w3.org/2000/svg"
 width="256.000000pt" height="256.000000pt" viewBox="0 0 256.000000 256.000000"
 preserveAspectRatio="xMidYMid meet">

<g transform="translate(0.000000,256.000000) scale(0.100000,-0.100000)"
fill="#000000" stroke="none">
<path d="M826 2433 c-4 -15 -114 -557 -130 -643 -3 -14 -18 -90 -34 -170 -17
-80 -32 -158 -35 -175 -3 -16 -12 -62 -21 -102 -16 -75 -11 -166 15 -258 18
-66 73 -169 123 -233 44 -55 153 -152 173 -152 4 0 19 -9 32 -19 l25 -19 -19
-28 c-11 -16 -26 -41 -35 -55 -8 -14 -41 -70 -74 -124 -51 -85 -58 -103 -53
-136 13 -101 93 -187 190 -209 63 -13 532 -13 596 1 97 20 176 106 188 204 5
44 1 53 -81 195 -47 82 -86 152 -86 154 0 3 25 21 55 41 165 105 279 287 305
486 l11 84 -119 585 -118 585 -451 3 c-424 2 -452 1 -457 -15z m871 -298 c23
-115 45 -226 49 -245 3 -19 15 -78 26 -130 10 -52 21 -106 24 -120 10 -56 56
-276 60 -292 5 -17 -21 -18 -452 -18 -412 0 -459 -2 -476 -17 -22 -20 -23 -41
-1 -65 15 -17 43 -18 479 -18 l464 0 -6 -32 c-34 -201 -156 -364 -336 -450
-49 -24 -67 -37 -62 -48 3 -8 50 -92 105 -186 54 -94 99 -180 99 -190 0 -30
-37 -82 -72 -104 -31 -19 -51 -20 -299 -20 -147 0 -281 3 -299 6 -40 8 -96 63
-105 102 -5 25 11 57 107 217 81 135 109 190 99 193 -8 3 -49 22 -93 44 -155
78 -269 232 -304 413 l-16 80 51 250 c27 138 52 261 55 275 9 50 106 526 111
548 l5 22 372 -2 372 -3 43 -210z"/>
</g>
</svg>
